# xmcd CD database file
#
# Track frame offsets:
#	150
#	13722
#	28033
#	47645
#	59852
#	71739
#	88073
#	101179
#	114003
#	131233
#	146665
#	161091
#	177122
#	196069
#	208492
#	222096
#	236274
#	252664
#	267797
#	280168
#	294548
#	310106
#	324664
#
# Disc length: 4575 seconds
#
# Revision: 0
# Processed by: cddbd v1.5.2PL0 Copyright (c) Steve Scherf et al.
# Submitted via: CDex 2.23
#
DISCID=6611dd17
DTITLE=Teddy Wilson - Teddy Wilson Trio CD1
DYEAR=1900
DGENRE=Jazz
TTITLE0=Blues For Th oldest profession
TTITLE1=It Had To Be You
TTITLE2=You Took Advantage Of Me
TTITLE3=Three Little Words
TTITLE4=If I Had You
TTITLE5=Who's sorry Now
TTITLE6=The Birth Of The Blues
TTITLE7=When Your Lover Has gone
TTITLE8=Moonlight On The Ganges
TTITLE9=April In Paris
TTITLE10=Hallelujah
TTITLE11=Get Out Of Town
TTITLE12=Stompi' At Th Savoy
TTITLE13=Say Isn't So
TTITLE14=All Of Me
TTITLE15=Stars Fell on Alabama
TTITLE16=I Got Rythm
TTITLE17=On The Sunny Of The Street
TTITLE18=Sweet Georgia Brown
TTITLE19=As Time Goes By
TTITLE20=Smiles
TTITLE21=When Your Lover has Gone
TTITLE22=Limehous Blues
EXTD=
EXTT0=
EXTT1=
EXTT2=
EXTT3=
EXTT4=
EXTT5=
EXTT6=
EXTT7=
EXTT8=
EXTT9=
EXTT10=
EXTT11=
EXTT12=
EXTT13=
EXTT14=
EXTT15=
EXTT16=
EXTT17=
EXTT18=
EXTT19=
EXTT20=
EXTT21=
EXTT22=
PLAYORDER=
